<svg width="97" height="30" viewBox="0 0 97 30" fill="none" xmlns="http://www.w3.org/2000/svg">
<path d="M12.64 29.56C10.3733 29.56 8.17333 29.28 6.04 28.72C3.90667 28.16 2.17333 27.4133 0.84 26.48L3.44 20.64C4.69333 21.4667 6.14667 22.1333 7.8 22.64C9.45333 23.1467 11.08 23.4 12.68 23.4C15.72 23.4 17.24 22.64 17.24 21.12C17.24 20.32 16.8 19.7333 15.92 19.36C15.0667 18.96 13.68 18.5467 11.76 18.12C9.65333 17.6667 7.89333 17.1867 6.48 16.68C5.06667 16.1467 3.85333 15.3067 2.84 14.16C1.82667 13.0133 1.32 11.4667 1.32 9.52C1.32 7.81333 1.78667 6.28 2.72 4.92C3.65333 3.53333 5.04 2.44 6.88 1.64C8.74667 0.839999 11.0267 0.439998 13.72 0.439998C15.56 0.439998 17.3733 0.653332 19.16 1.08C20.9467 1.48 22.52 2.08 23.88 2.88L21.44 8.76C18.7733 7.32 16.1867 6.6 13.68 6.6C12.1067 6.6 10.96 6.84 10.24 7.32C9.52 7.77333 9.16 8.37333 9.16 9.12C9.16 9.86667 9.58667 10.4267 10.44 10.8C11.2933 11.1733 12.6667 11.56 14.56 11.96C16.6933 12.4133 18.4533 12.9067 19.84 13.44C21.2533 13.9467 22.4667 14.7733 23.48 15.92C24.52 17.04 25.04 18.5733 25.04 20.52C25.04 22.2 24.5733 23.72 23.64 25.08C22.7067 26.44 21.3067 27.5333 19.44 28.36C17.5733 29.16 15.3067 29.56 12.64 29.56ZM32.7784 8.72C32.7784 8.72 32.7518 8.61333 32.6984 8.4C32.6451 8.16 32.6584 7.88 32.7384 7.56C32.8451 7.24 33.0851 6.94667 33.4584 6.68C33.8584 6.41333 34.4851 6.24 35.3384 6.16C36.1918 6.08 37.1518 6.01333 38.2184 5.96C39.3118 5.90667 40.3518 5.85333 41.3384 5.8C42.3518 5.74667 43.1784 5.70667 43.8184 5.68C44.4584 5.65333 44.7784 5.64 44.7784 5.64C44.7784 5.64 44.9518 5.65333 45.2984 5.68C45.6718 5.68 46.0984 5.73333 46.5784 5.84C47.0851 5.92 47.5384 6.09333 47.9384 6.36C48.3384 6.6 48.5784 6.96 48.6584 7.44C48.7384 7.92 48.6451 8.29333 48.3784 8.56C48.1118 8.82666 47.7918 9.02667 47.4184 9.16C47.0451 9.26667 46.7118 9.33333 46.4184 9.36C46.1251 9.38667 45.9784 9.4 45.9784 9.4L39.5784 9.76C39.5784 9.76 39.6184 9.93333 39.6984 10.28C39.7784 10.6267 39.8584 11.0267 39.9384 11.48C40.0451 11.9067 40.1118 12.28 40.1384 12.6C40.1651 12.8933 40.1918 13.28 40.2184 13.76C40.2451 14.2133 40.2718 14.6267 40.2984 15C40.3251 15.3467 40.3384 15.52 40.3384 15.52H43.2984C43.2984 15.52 43.4451 15.5333 43.7384 15.56C44.0318 15.56 44.3651 15.6133 44.7384 15.72C45.1384 15.8 45.4851 15.9333 45.7784 16.12C46.0718 16.3067 46.2318 16.5867 46.2584 16.96C46.2851 17.44 46.0984 17.8 45.6984 18.04C45.3251 18.28 44.9251 18.44 44.4984 18.52C44.0984 18.5733 43.8451 18.6133 43.7384 18.64C43.6584 18.64 43.4451 18.6533 43.0984 18.68C42.7518 18.68 42.3651 18.68 41.9384 18.68C41.5384 18.68 41.1784 18.68 40.8584 18.68C40.5384 18.68 40.3784 18.68 40.3784 18.68C40.3784 18.68 40.3784 18.88 40.3784 19.28C40.4051 19.6533 40.4318 20.0933 40.4584 20.6C40.4851 21.1067 40.4851 21.5467 40.4584 21.92C40.4584 22.2667 40.4451 22.6933 40.4184 23.2C40.3918 23.68 40.3651 24.1067 40.3384 24.48C40.3118 24.8267 40.2984 25 40.2984 25L45.6984 24.8C45.6984 24.8 45.8718 24.8 46.2184 24.8C46.5651 24.7733 46.9784 24.8 47.4584 24.88C47.9384 24.96 48.3651 25.12 48.7384 25.36C49.1118 25.6 49.3118 25.96 49.3384 26.44C49.3918 26.92 49.2584 27.3067 48.9384 27.6C48.6184 27.8933 48.2451 28.1067 47.8184 28.24C47.3918 28.3733 47.0051 28.4667 46.6584 28.52C46.3384 28.5467 46.1784 28.56 46.1784 28.56L37.5384 29C37.5384 29 37.3251 29 36.8984 29C36.4984 29.0267 36.0318 29 35.4984 28.92C34.9651 28.8133 34.4984 28.6133 34.0984 28.32C33.6984 28 33.5118 27.52 33.5384 26.88C33.5918 26.0267 33.6451 24.6933 33.6984 22.88C33.7518 21.04 33.7251 18.8933 33.6184 16.44C33.5118 13.9867 33.2318 11.4133 32.7784 8.72ZM58.9797 0.999998H66.8997V29H58.9797V0.999998Z" fill="black"/>
<path d="M82.2144 29C81.2544 29 80.521 28.8933 80.0144 28.68C79.5344 28.44 79.1877 28.1733 78.9744 27.88C78.7877 27.56 78.681 27.2933 78.6544 27.08C78.6544 26.84 78.6544 26.72 78.6544 26.72C78.6544 26.72 78.6144 26.32 78.5344 25.52C78.4544 24.72 78.3477 23.6933 78.2144 22.44C78.081 21.16 77.9344 19.8 77.7744 18.36C77.641 16.8933 77.4944 15.4933 77.3344 14.16C77.201 12.8 77.0944 11.6533 77.0144 10.72C76.9344 9.76 76.881 9.16 76.8544 8.92C76.8277 8.22667 76.9744 7.62667 77.2944 7.12C77.641 6.58667 78.4677 6.28 79.7744 6.2C80.6544 6.14667 81.361 6.28 81.8944 6.6C82.4277 6.92 82.8144 7.25333 83.0544 7.6C83.2944 7.92 83.4144 8.08 83.4144 8.08L87.1744 17.2L88.6544 19.96L87.7344 12.36C87.7344 12.36 87.7344 11.92 87.7344 11.04C87.761 10.16 87.8144 9.10667 87.8944 7.88C87.9477 7.26667 88.1477 6.8 88.4944 6.48C88.841 6.16 89.2277 5.93333 89.6544 5.8C90.1077 5.66667 90.4944 5.6 90.8144 5.6C91.161 5.57333 91.3344 5.56 91.3344 5.56C91.3344 5.56 91.481 5.57333 91.7744 5.6C92.0944 5.62666 92.4544 5.74666 92.8544 5.96C93.2544 6.14667 93.601 6.49333 93.8944 7C94.2144 7.48 94.361 8.18667 94.3344 9.12C94.3077 10.2667 94.3477 11.5733 94.4544 13.04C94.561 14.48 94.6944 15.96 94.8544 17.48C95.041 19 95.2144 20.4267 95.3744 21.76C95.561 23.0667 95.721 24.16 95.8544 25.04C96.0144 25.92 96.1077 26.4667 96.1344 26.68C96.1877 27 96.201 27.3867 96.1744 27.84C96.1477 28.2933 95.9344 28.6933 95.5344 29.04C95.161 29.3867 94.4544 29.5733 93.4144 29.6C92.3744 29.6 91.601 29.48 91.0944 29.24C90.5877 29 90.241 28.76 90.0544 28.52C89.8944 28.2533 89.8144 28.12 89.8144 28.12L83.8144 17.36C83.8144 17.36 83.8677 17.6267 83.9744 18.16C84.081 18.6933 84.201 19.3867 84.3344 20.24C84.4944 21.0933 84.641 22.0133 84.7744 23C84.9344 23.9867 85.0544 24.9333 85.1344 25.84C85.2144 26.7467 85.1077 27.4267 84.8144 27.88C84.5477 28.3067 84.201 28.6 83.7744 28.76C83.3744 28.92 83.0144 29 82.6944 29C82.3744 29 82.2144 29 82.2144 29Z" fill="#F5B201"/>
</svg>
